<svg xmlns="http://www.w3.org/2000/svg" width="1920" height="1080" viewBox="0 0 1920 1080"><defs><style>.cls-1,.cls-5{fill:#fff;}.cls-1{stroke:#fff;stroke-miterlimit:10;stroke-width:6px;}.cls-2{fill:#939393;}.cls-3{fill:#c4c4c4;}.cls-4{fill:#f1a849;}</style></defs><g id="Layer_2" data-name="Layer 2"><line class="cls-1" x1="91.5" y1="200" x2="91.5" y2="242"/><rect class="cls-2" x="50" y="180" width="83" height="83"/><rect class="cls-3" x="140" y="180" width="83" height="83"/><rect class="cls-3" x="230" y="180" width="83" height="83"/><rect class="cls-3" x="322" y="180" width="83" height="83"/><rect class="cls-3" x="414" y="180" width="83" height="83"/><rect class="cls-2" x="505" y="180" width="83" height="83"/><rect class="cls-2" x="414" y="534" width="83" height="83"/><rect class="cls-2" x="49" y="712" width="815" height="83"/><rect class="cls-2" x="505" y="534" width="83" height="83"/><rect class="cls-2" x="597" y="534" width="83" height="83"/><rect class="cls-2" x="689" y="534" width="83" height="83"/><rect class="cls-2" x="873" y="534" width="83" height="83"/><rect class="cls-2" x="964" y="534" width="83" height="83"/><rect class="cls-2" x="964" y="712" width="633" height="83"/><rect class="cls-2" x="1057" y="534" width="83" height="83"/><rect class="cls-2" x="1149" y="534" width="83" height="83"/><rect class="cls-2" x="597" y="180" width="83" height="83"/><rect class="cls-2" x="689" y="180" width="83" height="83"/><rect class="cls-3" x="781" y="180" width="83" height="83"/><rect class="cls-3" x="781" y="180" width="83" height="83"/><rect class="cls-3" x="49" y="534" width="83" height="83"/><rect class="cls-3" x="140" y="534" width="83" height="83"/><rect class="cls-3" x="231" y="534" width="83" height="83"/><rect class="cls-3" x="322" y="534" width="83" height="83"/><rect class="cls-3" x="781" y="534" width="83" height="83"/><rect class="cls-3" x="414" y="356" width="358" height="83"/><rect class="cls-3" x="1239" y="356" width="358" height="83"/><rect class="cls-3" x="873" y="180" width="83" height="83"/><rect class="cls-3" x="964" y="180" width="83" height="83"/><rect class="cls-4" x="1241" y="180" width="83" height="83"/><rect class="cls-3" x="1604" y="180" width="269" height="83"/><rect class="cls-3" x="1053" y="180" width="179" height="83"/><rect class="cls-4" x="1332" y="180" width="265" height="83"/><path class="cls-5" d="M1142.12,237.38a28.28,28.28,0,0,1-9.33,1.67c-4.59,0-8.38-1.18-11.36-4-2.61-2.52-4.23-6.58-4.23-11.31,0-9.06,6.26-15.68,16.45-15.68a18.81,18.81,0,0,1,7.57,1.39l-.94,3.2a15.84,15.84,0,0,0-6.72-1.3c-7.39,0-12.22,4.59-12.22,12.21s4.65,12.26,11.72,12.26a12.81,12.81,0,0,0,5.23-.81v-9.06h-6.17v-3.16h10Z"/><path class="cls-5" d="M1148.12,208.71a46.12,46.12,0,0,1,7.53-.58c3.87,0,6.71.9,8.52,2.52a8.19,8.19,0,0,1,2.66,6.35,9,9,0,0,1-2.35,6.5c-2.07,2.2-5.45,3.33-9.28,3.33a13.25,13.25,0,0,1-3.16-.27v12.17h-3.92Zm3.92,14.65a13,13,0,0,0,3.25.32c4.73,0,7.61-2.3,7.61-6.49,0-4-2.84-5.95-7.16-5.95a16.58,16.58,0,0,0-3.7.31Z"/><path class="cls-5" d="M1468.87,237.38a28.34,28.34,0,0,1-9.33,1.67c-4.6,0-8.38-1.18-11.36-4-2.61-2.52-4.23-6.58-4.23-11.31,0-9.06,6.26-15.68,16.45-15.68a18.85,18.85,0,0,1,7.57,1.39l-1,3.2a15.76,15.76,0,0,0-6.71-1.3c-7.39,0-12.22,4.59-12.22,12.21s4.65,12.26,11.72,12.26A12.81,12.81,0,0,0,1465,235v-9.06h-6.17v-3.16h10Z"/><path class="cls-5" d="M1474.87,208.71a46.12,46.12,0,0,1,7.53-.58c3.87,0,6.71.9,8.52,2.52a8.19,8.19,0,0,1,2.66,6.35,9,9,0,0,1-2.35,6.5c-2.07,2.2-5.45,3.33-9.28,3.33a13.25,13.25,0,0,1-3.16-.27v12.17h-3.92Zm3.92,14.65a13,13,0,0,0,3.25.32c4.73,0,7.61-2.3,7.61-6.49,0-4-2.84-5.95-7.16-5.95a16.58,16.58,0,0,0-3.7.31Z"/><path class="cls-5" d="M316.12,417.38a28.28,28.28,0,0,1-9.33,1.67c-4.59,0-8.38-1.18-11.36-4-2.61-2.52-4.23-6.58-4.23-11.31,0-9.06,6.26-15.68,16.45-15.68a18.81,18.81,0,0,1,7.57,1.39l-.94,3.2a15.84,15.84,0,0,0-6.72-1.3c-7.39,0-12.22,4.59-12.22,12.21S300,415.8,307.06,415.8a12.81,12.81,0,0,0,5.23-.81v-9.06h-6.17v-3.16h10Z"/><path class="cls-5" d="M322.12,388.71a46.12,46.12,0,0,1,7.53-.58c3.87,0,6.71.9,8.52,2.52a8.19,8.19,0,0,1,2.66,6.35,9,9,0,0,1-2.35,6.5c-2.07,2.2-5.45,3.33-9.28,3.33a13.25,13.25,0,0,1-3.16-.27v12.17h-3.92ZM326,403.36a13,13,0,0,0,3.25.32c4.73,0,7.61-2.3,7.61-6.49,0-4-2.84-5.95-7.16-5.95a16.58,16.58,0,0,0-3.7.31Z"/><path class="cls-5" d="M1745.73,224.49h-11.81v10.95h13.16v3.29H1730V208.35h16.41v3.29h-12.49v9.6h11.81Z"/><rect class="cls-3" x="1604" y="356" width="269" height="83"/><path class="cls-5" d="M1745.73,400.49h-11.81v10.95h13.16v3.29H1730V384.35h16.41v3.29h-12.49v9.6h11.81Z"/><rect class="cls-3" x="1604" y="534" width="269" height="83"/><rect class="cls-3" x="1604" y="712" width="269" height="83"/><path class="cls-5" d="M1745.73,578.49h-11.81v11h13.16v3.29H1730V562.35h16.41v3.29h-12.49v9.6h11.81Z"/><path class="cls-5" d="M1745.73,754.49h-11.81v11h13.16v3.29H1730V738.35h16.41v3.29h-12.49v9.6h11.81Z"/><rect class="cls-2" x="49" y="356" width="83" height="83"/><rect class="cls-2" x="140" y="356" width="83" height="83"/><rect class="cls-2" x="230" y="356" width="175" height="83"/><rect class="cls-2" x="781" y="356" width="451" height="83"/><path class="cls-5" d="M318.22,411.73a28.34,28.34,0,0,1-9.33,1.67c-4.6,0-8.39-1.17-11.36-4-2.61-2.53-4.24-6.58-4.24-11.32,0-9.06,6.27-15.68,16.46-15.68a18.64,18.64,0,0,1,7.57,1.4l-.95,3.2a15.6,15.6,0,0,0-6.72-1.31c-7.39,0-12.21,4.6-12.21,12.21s4.64,12.26,11.72,12.26a12.81,12.81,0,0,0,5.23-.81v-9.06h-6.18v-3.15h10Z"/><path class="cls-5" d="M324.22,383.06a46.08,46.08,0,0,1,7.52-.58c3.88,0,6.72.9,8.52,2.52a8.16,8.16,0,0,1,2.66,6.36,9,9,0,0,1-2.34,6.49c-2.08,2.21-5.46,3.33-9.29,3.33a13.21,13.21,0,0,1-3.15-.27v12.17h-3.92Zm3.92,14.65a12.87,12.87,0,0,0,3.24.32c4.74,0,7.62-2.3,7.62-6.49,0-4-2.84-6-7.17-6a16.48,16.48,0,0,0-3.69.31Z"/><path class="cls-5" d="M592.22,411.73a28.34,28.34,0,0,1-9.33,1.67c-4.6,0-8.39-1.17-11.36-4-2.61-2.53-4.24-6.58-4.24-11.32.05-9.06,6.27-15.68,16.46-15.68a18.64,18.64,0,0,1,7.57,1.4l-1,3.2a15.6,15.6,0,0,0-6.72-1.31c-7.39,0-12.21,4.6-12.21,12.21s4.64,12.26,11.72,12.26a12.81,12.81,0,0,0,5.23-.81v-9.06h-6.18v-3.15h10Z"/><path class="cls-5" d="M598.22,383.06a46.08,46.08,0,0,1,7.52-.58c3.88,0,6.72.9,8.52,2.52a8.16,8.16,0,0,1,2.66,6.36,9,9,0,0,1-2.34,6.49c-2.08,2.21-5.46,3.33-9.29,3.33a13.21,13.21,0,0,1-3.15-.27v12.17h-3.92Zm3.92,14.65a12.87,12.87,0,0,0,3.24.32c4.74,0,7.62-2.3,7.62-6.49,0-4-2.84-6-7.17-6a16.48,16.48,0,0,0-3.69.31Z"/><path class="cls-5" d="M334,738.7v30.38H330.1V738.7Z"/><path class="cls-5" d="M340.87,769.08V738.7h4.28l9.74,15.37a86.13,86.13,0,0,1,5.45,9.88l.09-.05c-.36-4.06-.45-7.75-.45-12.49V738.7h3.7v30.38h-4l-9.65-15.41a99.36,99.36,0,0,1-5.68-10.14l-.13,0c.22,3.83.32,7.48.32,12.53v13Z"/><path class="cls-5" d="M376.3,742h-9.24V738.7h22.49V742h-9.28v27h-4Z"/><path class="cls-5" d="M408.66,754.84H396.85v10.95H410v3.29H392.93V738.7h16.41V742H396.85v9.61h11.81Z"/><path class="cls-5" d="M415.11,739.11a40.44,40.44,0,0,1,7.53-.63c4.19,0,6.9.76,8.79,2.48a7.56,7.56,0,0,1,2.39,5.77,8,8,0,0,1-5.73,7.75v.14c2.35.81,3.74,3,4.46,6.13,1,4.23,1.72,7.16,2.35,8.33h-4.06a40,40,0,0,1-2-7.25c-.9-4.2-2.52-5.77-6.08-5.91H419v13.16h-3.92ZM419,753h4c4.2,0,6.86-2.3,6.86-5.77,0-3.92-2.84-5.64-7-5.68a16.21,16.21,0,0,0-3.88.36Z"/><path class="cls-5" d="M439.36,769.08V738.7h4.29l9.73,15.37a86.13,86.13,0,0,1,5.45,9.88l.1-.05c-.37-4.06-.46-7.75-.46-12.49V738.7h3.7v30.38h-4l-9.64-15.41a95.68,95.68,0,0,1-5.68-10.14l-.14,0c.23,3.83.32,7.48.32,12.53v13Z"/><path class="cls-5" d="M468.48,764.31a13.93,13.93,0,0,0,7,2c4,0,6.36-2.12,6.36-5.18,0-2.84-1.62-4.47-5.72-6-5-1.76-8-4.33-8-8.61,0-4.74,3.92-8.25,9.83-8.25a13.72,13.72,0,0,1,6.71,1.49l-1.08,3.2a12.09,12.09,0,0,0-5.77-1.45c-4.14,0-5.72,2.48-5.72,4.56,0,2.84,1.85,4.23,6,5.86,5.14,2,7.75,4.46,7.75,8.92,0,4.69-3.47,8.75-10.64,8.75a15.7,15.7,0,0,1-7.75-1.94Z"/><path class="cls-5" d="M495.17,738.7v12.71h14.69V738.7h4v30.38h-4V754.84H495.17v14.24h-3.92V738.7Z"/><path class="cls-5" d="M524.56,738.7v30.38h-3.92V738.7Z"/><path class="cls-5" d="M531.41,739.06a46.12,46.12,0,0,1,7.53-.58c3.87,0,6.71.9,8.52,2.52a8.21,8.21,0,0,1,2.66,6.36,8.92,8.92,0,0,1-2.35,6.49c-2.07,2.21-5.45,3.33-9.28,3.33a13.3,13.3,0,0,1-3.16-.27v12.17h-3.92Zm3.92,14.65a13,13,0,0,0,3.25.32c4.73,0,7.62-2.3,7.62-6.49,0-4-2.84-5.95-7.17-5.95a16.65,16.65,0,0,0-3.7.31Z"/><path class="cls-5" d="M1085.1,738.7h16.36V742H1089v10.1h11.49v3.25H1089v13.74h-3.92Z"/><path class="cls-5" d="M1111,738.7v30.38h-3.92V738.7Z"/><path class="cls-5" d="M1117.82,769.08V738.7h4.28l9.74,15.37a86.13,86.13,0,0,1,5.45,9.88l.09-.05c-.36-4.06-.45-7.75-.45-12.49V738.7h3.7v30.38h-4L1127,753.67a95.68,95.68,0,0,1-5.68-10.14l-.14,0c.23,3.83.32,7.48.32,12.53v13Z"/><path class="cls-5" d="M1152.4,759.53l-3.16,9.55h-4.06l10.33-30.38h4.73l10.37,30.38h-4.2l-3.24-9.55Zm10-3.07-3-8.74c-.67-2-1.13-3.79-1.58-5.55h-.09c-.45,1.81-.94,3.66-1.53,5.5l-3,8.79Z"/><path class="cls-5" d="M1175.07,738.7H1179v27.09h13v3.29h-16.9Z"/><path class="cls-5" d="M1221.63,754.84h-11.81v10.95H1223v3.29H1205.9V738.7h16.41V742h-12.49v9.61h11.81Z"/><path class="cls-5" d="M1244.71,769.08l-3.87-6.71c-1.58-2.57-2.57-4.24-3.52-6h-.09c-.86,1.76-1.71,3.38-3.29,6l-3.65,6.67h-4.51l9.29-15.37-8.93-15h4.55l4,7.13c1.12,2,2,3.51,2.79,5.13h.14c.85-1.8,1.62-3.2,2.75-5.13l4.14-7.13H1249l-9.24,14.79,9.46,15.59Z"/><path class="cls-5" d="M1258.33,759.53l-3.16,9.55h-4.05l10.32-30.38h4.73l10.37,30.38h-4.19l-3.25-9.55Zm10-3.07-3-8.74c-.67-2-1.12-3.79-1.57-5.55h-.09c-.45,1.81-1,3.66-1.54,5.5l-3,8.79Z"/><path class="cls-5" d="M1306.42,755.74c-.22-4.24-.49-9.33-.45-13.12h-.13c-1,3.57-2.3,7.35-3.83,11.54l-5.37,14.74h-3l-4.92-14.47c-1.44-4.28-2.65-8.2-3.51-11.81h-.09c-.09,3.79-.32,8.88-.59,13.44l-.81,13H1280l2.12-30.38h5l5.19,14.7c1.26,3.74,2.3,7.07,3.06,10.23h.14c.76-3.07,1.84-6.4,3.2-10.23l5.41-14.7h5l1.89,30.38h-3.83Z"/><path class="cls-5" d="M1326.62,739.06a46.12,46.12,0,0,1,7.53-.58c3.87,0,6.71.9,8.52,2.52a8.21,8.21,0,0,1,2.66,6.36,9,9,0,0,1-2.35,6.49c-2.07,2.21-5.45,3.33-9.28,3.33a13.25,13.25,0,0,1-3.16-.27v12.17h-3.92Zm3.92,14.65a13,13,0,0,0,3.25.32c4.73,0,7.61-2.3,7.61-6.49,0-4-2.84-5.95-7.16-5.95a16.58,16.58,0,0,0-3.7.31Z"/><path class="cls-5" d="M1350.6,739.11a40.44,40.44,0,0,1,7.53-.63c4.19,0,6.9.76,8.79,2.48a7.56,7.56,0,0,1,2.39,5.77,8,8,0,0,1-5.73,7.75v.14c2.35.81,3.74,3,4.46,6.13,1,4.23,1.72,7.16,2.35,8.33h-4.06a40,40,0,0,1-2-7.25c-.9-4.2-2.52-5.77-6.08-5.91h-3.7v13.16h-3.92Zm3.92,13.84h4c4.2,0,6.86-2.3,6.86-5.77,0-3.92-2.84-5.64-7-5.68a16.21,16.21,0,0,0-3.88.36Z"/><path class="cls-5" d="M1401,753.58c0,10.46-6.36,16-14.11,16-8,0-13.66-6.22-13.66-15.42,0-9.64,6-15.95,14.11-15.95C1395.59,738.21,1401,744.56,1401,753.58Zm-23.57.49c0,6.49,3.51,12.31,9.69,12.31s9.73-5.72,9.73-12.62c0-6-3.15-12.35-9.69-12.35S1377.38,747.4,1377.38,754.07Z"/><path class="cls-5" d="M1412.27,738.7h3.92V759c0,8.07-4,10.55-9.2,10.55a12.84,12.84,0,0,1-4.19-.72l.59-3.2a9.47,9.47,0,0,0,3.29.58c3.51,0,5.59-1.57,5.59-7.52Z"/><path class="cls-5" d="M1438.46,754.84h-11.81v10.95h13.16v3.29h-17.09V738.7h16.41V742h-12.48v9.61h11.81Z"/><path class="cls-5" d="M1466.13,768.09a19.46,19.46,0,0,1-8,1.45c-8.57,0-15-5.41-15-15.38,0-9.51,6.44-15.95,15.87-15.95a16.33,16.33,0,0,1,7.21,1.35l-1,3.2a14.33,14.33,0,0,0-6.13-1.26c-7.12,0-11.85,4.55-11.85,12.53,0,7.44,4.28,12.21,11.67,12.21a15.64,15.64,0,0,0,6.4-1.26Z"/><path class="cls-5" d="M1478.08,742h-9.24V738.7h22.49V742h-9.28v27h-4Z"/><path class="cls-5" d="M1000.22,411.73a28.34,28.34,0,0,1-9.33,1.67c-4.6,0-8.39-1.17-11.36-4-2.61-2.53-4.24-6.58-4.24-11.32.05-9.06,6.27-15.68,16.46-15.68a18.64,18.64,0,0,1,7.57,1.4l-1,3.2a15.6,15.6,0,0,0-6.72-1.31c-7.39,0-12.21,4.6-12.21,12.21s4.64,12.26,11.72,12.26a12.81,12.81,0,0,0,5.23-.81v-9.06h-6.18v-3.15h10Z"/><path class="cls-5" d="M1006.22,383.06a46.08,46.08,0,0,1,7.52-.58c3.88,0,6.72.9,8.52,2.52a8.16,8.16,0,0,1,2.66,6.36,9,9,0,0,1-2.34,6.49c-2.08,2.21-5.46,3.33-9.29,3.33a13.21,13.21,0,0,1-3.15-.27v12.17h-3.92Zm3.92,14.65a12.87,12.87,0,0,0,3.24.32c4.74,0,7.62-2.3,7.62-6.49,0-4-2.84-6-7.17-6a16.48,16.48,0,0,0-3.69.31Z"/><path class="cls-5" d="M834.33,591.09a19.51,19.51,0,0,1-8,1.45c-8.56,0-15-5.41-15-15.38,0-9.51,6.45-15.95,15.87-15.95a16.3,16.3,0,0,1,7.21,1.35l-1,3.2a14.26,14.26,0,0,0-6.13-1.26c-7.12,0-11.85,4.55-11.85,12.53,0,7.44,4.28,12.21,11.67,12.21a15.6,15.6,0,0,0,6.4-1.26Z"/><rect class="cls-3" x="873" y="712" width="83" height="83"/><path class="cls-5" d="M926.33,769.09a19.51,19.51,0,0,1-8,1.45c-8.56,0-15-5.41-15-15.38,0-9.51,6.45-15.95,15.87-15.95a16.3,16.3,0,0,1,7.21,1.35l-1,3.2a14.26,14.26,0,0,0-6.13-1.26c-7.12,0-11.85,4.55-11.85,12.53,0,7.44,4.28,12.21,11.67,12.21a15.6,15.6,0,0,0,6.4-1.26Z"/><path class="cls-5" d="M1405.83,398.84H1394v11h13.16v3.29H1390.1V382.7h16.4V386H1394v9.61h11.81Z"/><path class="cls-5" d="M1412.27,383.06a46.32,46.32,0,0,1,7.53-.58c3.88,0,6.72.9,8.52,2.52a8.16,8.16,0,0,1,2.66,6.36,9,9,0,0,1-2.34,6.49c-2.08,2.21-5.46,3.33-9.29,3.33a13.35,13.35,0,0,1-3.16-.27v12.17h-3.92Zm3.92,14.65a13,13,0,0,0,3.25.32c4.73,0,7.62-2.3,7.62-6.49,0-4-2.84-6-7.17-6a16.65,16.65,0,0,0-3.7.31Z"/><rect class="cls-3" x="1239" y="534" width="358" height="83"/><path class="cls-5" d="M1405.83,576.84H1394v10.95h13.16v3.29H1390.1V560.7h16.4V564H1394v9.6h11.81Z"/><path class="cls-5" d="M1412.27,561.06a46.32,46.32,0,0,1,7.53-.58c3.88,0,6.72.9,8.52,2.52a8.16,8.16,0,0,1,2.66,6.36,9,9,0,0,1-2.34,6.49c-2.08,2.21-5.46,3.33-9.29,3.33a13.35,13.35,0,0,1-3.16-.27v12.17h-3.92Zm3.92,14.65a13,13,0,0,0,3.25.32c4.73,0,7.62-2.3,7.62-6.49,0-4-2.84-5.95-7.17-5.95a16.65,16.65,0,0,0-3.7.31Z"/></g></svg>