<svg xmlns="http://www.w3.org/2000/svg" width="50" height="50" viewBox="0 0 50 50"><defs><style>.cls-1{fill:#333;}</style></defs><g id="Layer_7" data-name="Layer 7"><path class="cls-1" d="M48.58,25.47a23.91,23.91,0,0,1-17,23,15.43,15.43,0,0,1-.6-5.24c.13-2.38.23-6.12-2-7.65,3,.1,6.26-.64,8.41-2.8a9,9,0,0,0,2.81-5.11,17,17,0,0,0,.06-5.7,8.34,8.34,0,0,0-.85-2.24c-.13-.24-1.55-2.17-1.51-2.24a5.52,5.52,0,0,0-.51-6.38c-.5-.56-3.1.28-3.67.53-1,.42-1.82,1.66-2.83,1.82a2.93,2.93,0,0,1-1.17-.15,23.73,23.73,0,0,0-5.39-.41,14.4,14.4,0,0,0-5.35.77,7.13,7.13,0,0,0-6.37-2.55,5.5,5.5,0,0,0-.51,6.37c0,.08-1.3,1.86-1.42,2.09-1.37,2.49-1.25,5.35-.88,8.1a8.77,8.77,0,0,0,2.5,4.75c2.33,2.48,5.23,3.05,8.57,3.16-.26,0-1.23,1.62-1.37,1.88-.34.65-.31,1.72-1.12,2a5,5,0,0,1-1.6.12,4.7,4.7,0,0,1-1.67-.19,18.86,18.86,0,0,1-3-2.55l-1.28-1a7,7,0,0,0-2.95-1c-.28.05-.32,0-.35.29a.85.85,0,0,0,.28.61,4,4,0,0,0,.76.6c1.29,1,1.82,2.68,2.78,4A7,7,0,0,0,17,43.16c.45,0,1.87-.32,2.09.23a.93.93,0,0,1,0,.47c0,.37-.23,4.64-.67,4.64a23.92,23.92,0,0,1-17-23A23.78,23.78,0,0,1,25,1.5,23.78,23.78,0,0,1,48.58,25.47Z"/><path class="cls-1" d="M31,43.21v0a15.43,15.43,0,0,0,.6,5.24h0Z"/></g></svg>