<svg xmlns="http://www.w3.org/2000/svg" width="50" height="50" viewBox="0 0 50 50"><defs><style>.cls-1{fill:#333;stroke:#333;stroke-miterlimit:10;stroke-width:2px;}</style></defs><g id="Layer_5" data-name="Layer 5"><path class="cls-1" d="M11.44,7.33A3.24,3.24,0,0,1,8,10.69a3.26,3.26,0,0,1-3.3-3.36A3.34,3.34,0,0,1,8.08,3.91,3.25,3.25,0,0,1,11.44,7.33ZM5.34,45.91V15.79h5.47V45.91Z"/><path class="cls-1" d="M19.9,23.94c0-3.11-.07-5.66-.25-8.15H24.5l.31,5h.13a11.06,11.06,0,0,1,10-5.66c4.17,0,10.64,2.48,10.64,12.81v18H40.06V28.55c0-4.86-1.81-8.9-7-8.9a7.79,7.79,0,0,0-7.35,5.6,8.12,8.12,0,0,0-.37,2.55V45.91H19.9Z"/></g></svg>