<svg xmlns="http://www.w3.org/2000/svg" width="143.25" height="87.52" viewBox="0 0 143.25 87.52"><defs><style>.cls-1{fill:#fff;}</style></defs><g id="Layer_3" data-name="Layer 3"><rect x="0.25" y="-0.26" width="143" height="88"/></g><g id="Layer_9" data-name="Layer 9"><path class="cls-1" d="M39.44,33.35a23.48,23.48,0,0,0,4.62-7.11c1.11-2.93.83-6.06-1.5-8.31-2.65-2.55-6-2.48-9.22-1A30.72,30.72,0,0,0,25,23.61a69.17,69.17,0,0,0-7,8.57,67,67,0,0,0-5.44,9.39,12.91,12.91,0,0,0-1.46,4.55,4.71,4.71,0,0,0,.26,2,1.72,1.72,0,0,0,.47.83,3.82,3.82,0,0,0,1.38.28c3.42.41,6.78-1.14,9.64-2.84a95.11,95.11,0,0,0,9.24-6.29A52.19,52.19,0,0,0,39.44,33.35ZM32.91,38.3a93.56,93.56,0,0,1-8.06,5.76c-2.66,1.74-5.54,3.6-8.78,3.94a8.21,8.21,0,0,1-2.32-.09c-.86-.15-1-1-1.09-1.76a8.94,8.94,0,0,1,1.1-4.34,67.51,67.51,0,0,1,4.62-8.32,65.56,65.56,0,0,1,6.71-8.6c2.43-2.64,5.09-5.4,8.36-7a6.63,6.63,0,0,1,9.35,7.93A18.36,18.36,0,0,1,39,32.37,44.11,44.11,0,0,1,32.91,38.3Z"/><path class="cls-1" d="M14.32,50.34a10.48,10.48,0,0,1-1.25-.07l-.19,0a3.52,3.52,0,0,1-1.65-.43,2.42,2.42,0,0,1-.8-1.22,5.64,5.64,0,0,1-.36-2.55,13.64,13.64,0,0,1,1.56-4.9,69,69,0,0,1,5.51-9.54,70.78,70.78,0,0,1,7.1-8.69A31.75,31.75,0,0,1,32.9,16c4-1.82,7.66-1.39,10.35,1.21,2.46,2.38,3.1,5.8,1.74,9.39A24.17,24.17,0,0,1,40.19,34h0a52.23,52.23,0,0,1-7.52,6.91,96.41,96.41,0,0,1-9.34,6.36C20.88,48.74,17.72,50.34,14.32,50.34ZM36.64,18.17a6.65,6.65,0,0,0-2.78.65c-3,1.47-5.53,4-8,6.75A64.71,64.71,0,0,0,14.67,42.23a8.08,8.08,0,0,0-1,3.84c.07.82.21.85.28.86A7.28,7.28,0,0,0,16,47c3.06-.31,5.87-2.16,8.35-3.78a94.4,94.4,0,0,0,8-5.69h0a44.13,44.13,0,0,0,5.92-5.8,17.78,17.78,0,0,0,3.64-6.16,5.62,5.62,0,0,0-1.3-5.68A5.31,5.31,0,0,0,36.64,18.17Z"/><path class="cls-1" d="M40.47,46.78h0Z"/><polygon class="cls-1" points="40.51 47.78 40.49 47.24 40.5 47.38 40.32 45.79 40.44 45.78 40.55 47.77 40.52 47.52 40.54 47.78 40.5 47.39 40.51 47.78"/><path class="cls-1" d="M73.48,47.38l-1.07.55c1.41-2.59,2.81-5.2,4.22-7.78a47.81,47.81,0,0,0,2.73-5.51C80,33.1,80.42,31,79,29.75a5.8,5.8,0,0,0-4.71-.91,16.36,16.36,0,0,0-6,2.66c-2.16,1.43-4.13,3.15-6.2,4.7s-4.14,3-6.24,4.55c-1.88,1.36-3.7,2.84-5.67,4.06l-3,1.83-.52.32h0l0,0c-.34.21-.25,0,0,0a6.87,6.87,0,0,0-1.79.77c-.9.4-3.44,1.7-3.88.11-.34-1.21.58-2.85,1.12-3.89l1.59-3a68.6,68.6,0,0,1,7.18-10.39c3.12-3.94,6.47-7.69,9.82-11.43,1.61-1.81,3.22-3.61,4.81-5.43.22-.25.28-.61-.09-.7s-.9.32-1.13.58c-6.37,7.3-13.13,14.3-18.67,22.28a73,73,0,0,0-4.69,7.83c-.74,1.38-2.94,5.34-.5,6.1,1.33.41,3-.36,4.15-.88a21.2,21.2,0,0,0,2.82-1.31l3-1.85c1.58-1,3-2.14,4.55-3.22,1.35-1,2.69-2,4-2.94A22.36,22.36,0,0,0,56.69,43c-.88,1.65-2.2,4.64-.39,6.15,1.23,1,3.2.7,4.62.36a21.78,21.78,0,0,0,6.7-2.83c1.5-1,3-2,4.38-3.12.91-.7,1.75-1.53,2.66-2.26l-1,1.8C72.59,45,71.55,47,70.5,48.92l-7.38,3.81c-1.58.82-3.06,1.85-4.56,2.8-2,1.29-4,2.62-6,4a40.73,40.73,0,0,0-8.08,7.14c-2,2.42-3.6,5.46-3.19,8.69A5.79,5.79,0,0,0,44,79.76a4.88,4.88,0,0,0,5,.13c2.37-1.32,4.19-3.59,5.91-5.65,2.54-3,4.95-6.12,7.32-9.28A104.34,104.34,0,0,0,69,54.15c.9-1.57,1.77-3.15,2.64-4.74l2-1c.26-.13.86-.55.75-.91S73.73,47.25,73.48,47.38Zm-1.29-5.13c-1.4,1.17-2.94,2.2-4.43,3.25a17.34,17.34,0,0,1-7.24,3,3.8,3.8,0,0,1-2.69-.35c-1-.67-.9-2-.64-3,.84-3.3,3.4-6.06,5.75-8.37l.16-.18,4.18-3.17a15.85,15.85,0,0,1,6.12-3.2c1.51-.31,3.82-.21,4.66,1.33s-.29,3.88-1,5.34c-.46.91-.93,1.82-1.41,2.71A32.1,32.1,0,0,0,72.19,42.25ZM66.33,56.41a125,125,0,0,1-9.75,14.18c-1.13,1.43-2.34,2.8-3.51,4.2a18,18,0,0,1-1.52,1.71c-1.5,1.34-2.88,3.25-5.14,2.57-3.69-1.1-4.15-5.57-2.92-8.64s3.88-5.62,6.44-7.72a125.15,125.15,0,0,1,12.49-8.54l.18-.11h0c.38-.18.74-.38,1.12-.57l3.33-1.73,2.64-1.36C68.61,52.41,67.5,54.43,66.33,56.41Z"/><path class="cls-1" d="M46.54,81.51a5.93,5.93,0,0,1-3.12-.9,6.84,6.84,0,0,1-3.1-5.12c-.38-3,.77-6.21,3.41-9.44A42.58,42.58,0,0,1,52,58.72c1.9-1.35,3.87-2.67,6-4,.39-.24.77-.49,1.15-.74a40.4,40.4,0,0,1,3.49-2.11l7.11-3.67.19-.36,1.32-2.44c-1,.72-2,1.47-3.12,2.17a22.86,22.86,0,0,1-7,3c-1.75.41-3.95.71-5.49-.57s-1.68-3.49-.31-6.47l-1.11.82c-1.06.78-2.16,1.6-3.33,2.32l-3,1.85a15.79,15.79,0,0,1-2.31,1.12l-.88.37c-1.26.55-3,1.3-4.6.81a2.48,2.48,0,0,1-1.61-1.43c-.66-1.61.3-3.81,1.44-5.95l.08-.15a76.05,76.05,0,0,1,4.76-7.93A182.44,182.44,0,0,1,59,18.08c1.53-1.71,3.06-3.42,4.57-5.14a2.31,2.31,0,0,1,2.12-.9,1.32,1.32,0,0,1,1,.88,1.52,1.52,0,0,1-.37,1.45c-1.57,1.8-3.16,3.58-4.76,5.36-3.31,3.71-6.68,7.48-9.84,11.46a68.16,68.16,0,0,0-7.07,10.24l-.52,1-1.07,2-.09.18c-.44.83-1.17,2.22-1,3,.14.09.64.1,2.27-.64l.24-.11c.14-.06.29-.15.46-.23a5,5,0,0,1,1.42-.6l1.25-.76L49.64,44c1.3-.81,2.57-1.76,3.81-2.68.6-.45,1.2-.9,1.81-1.34,2-1.43,4.13-3,6.22-4.54.74-.56,1.47-1.13,2.19-1.7,1.3-1,2.64-2.1,4.06-3a16.84,16.84,0,0,1,6.4-2.82c1.06-.19,3.74-.45,5.54,1.15,1.44,1.27,1.65,3.29.62,6a41.24,41.24,0,0,1-2.46,5l-.33.59L75.41,44.5l-1,1.81.1,0a1.27,1.27,0,0,1,.75.83c.29.93-.49,1.71-1.24,2.1l-1.7.88c-.83,1.5-1.66,3-2.51,4.49A105.13,105.13,0,0,1,63,65.56c-2.63,3.52-5,6.57-7.35,9.33l-.33.39a22.13,22.13,0,0,1-5.87,5.48A5.91,5.91,0,0,1,46.54,81.51ZM67.26,52.78l-3.43,1.78-.77.39-1.57,1a108.18,108.18,0,0,0-10.93,7.53c-2.37,2-5,4.34-6.14,7.32a7,7,0,0,0,0,5.36,3.59,3.59,0,0,0,2.29,2c1.27.38,2.13-.37,3.43-1.64l.76-.72A11.09,11.09,0,0,0,52,74.53l.32-.38c.39-.46.77-.92,1.16-1.37.78-.92,1.59-1.86,2.34-2.81A125.9,125.9,0,0,0,65.47,55.9C66.09,54.86,66.69,53.8,67.26,52.78Zm6.66-4.54H74l-.34-.53,0,0Zm-10.12-11-.16.17c-2.24,2.21-4.69,4.82-5.48,7.9-.09.37-.35,1.58.25,2a3.1,3.1,0,0,0,2,.17,16.38,16.38,0,0,0,6.81-2.8l.65-.45c1.25-.87,2.54-1.77,3.71-2.75h0c.26-.21.52-.43.77-.66a24.4,24.4,0,0,1,2.55-2c.44-.81.86-1.63,1.27-2.45l.07-.14c.63-1.26,1.58-3.16,1-4.29s-2.44-1.05-3.57-.82a15,15,0,0,0-5.72,3ZM46.68,46.1v.67l.39-.47A.91.91,0,0,0,46.68,46.1Z"/><path class="cls-1" d="M130.88,40.44c-3,.57-6.11.9-9.12,1.6a46.66,46.66,0,0,0-8.64,3.19,67.55,67.55,0,0,1-9.05,3.31,3,3,0,0,1-2.11.17,2.63,2.63,0,0,1-1.14-1.86,6.43,6.43,0,0,1,.73-4,20.68,20.68,0,0,1,3-4c1.2-1.43,2.37-2.87,3.56-4.31.21-.25.29-.61-.09-.71s-.91.33-1.13.59l-1,1.19c.81-1.6,1.26-3.42.39-5-1.41-2.51-4.61-2.64-7.1-2.14a24.82,24.82,0,0,0-12,6.58,25.76,25.76,0,0,0-4.1,5.46c-1.1,1.91-2,4.19-1.21,6.38a4.35,4.35,0,0,0,4.52,3c2.43-.18,4.85-1.61,6.92-2.8a51.22,51.22,0,0,0,6.39-4.43c.45-.36.89-.73,1.33-1.11-.18.26-.36.52-.52.79-1.17,1.92-2.38,5.64-.18,7.36,1.07.84,2.61.24,3.77-.09,1.66-.48,3.31-1,4.93-1.64,3.26-1.23,6.34-2.93,9.65-4,3.73-1.22,7.67-1.54,11.51-2.27a1.49,1.49,0,0,0,1.06-.74C131.38,40.65,131.29,40.36,130.88,40.44ZM94.67,45.2a29.32,29.32,0,0,1-5.8,3c-2,.72-4,.42-5.13-1.56-1-1.82-.5-3.9.4-5.66a23.43,23.43,0,0,1,3.31-4.82,21.36,21.36,0,0,1,11.09-6.41c2.1-.42,4.57-.39,6,1.48s.35,4.06-.69,5.74C101.7,40.43,98,43,94.67,45.2Z"/><path class="cls-1" d="M101.68,51.15a3.07,3.07,0,0,1-2-.65C98,49.13,97.88,46.94,98.36,45a50,50,0,0,1-4.55,3l-.09.06c-2.07,1.19-4.64,2.69-7.26,2.88a5.36,5.36,0,0,1-5.53-3.67c-.73-2.07-.32-4.43,1.28-7.21a27.3,27.3,0,0,1,4.26-5.67A25.9,25.9,0,0,1,99,27.52c3.84-.78,6.82.17,8.19,2.62a4.83,4.83,0,0,1,.59,2.69,1.23,1.23,0,0,1,.5,0,1.3,1.3,0,0,1,1,.85,1.59,1.59,0,0,1-.34,1.46l-1.14,1.38c-.81,1-1.61,2-2.43,2.93l-.63.74a15.23,15.23,0,0,0-2.27,3.09,5.56,5.56,0,0,0-.64,3.34,1.8,1.8,0,0,0,.6,1.15,2.21,2.21,0,0,0,1.15-.16l.25-.07a66.15,66.15,0,0,0,8.91-3.26,48.66,48.66,0,0,1,8.83-3.26c1.85-.42,3.74-.72,5.57-1,1.19-.19,2.39-.37,3.58-.6h0a1.34,1.34,0,0,1,1.33.44,1.43,1.43,0,0,1,.16,1.46,2.52,2.52,0,0,1-1.81,1.35c-1.2.22-2.4.41-3.61.6A49,49,0,0,0,119,44.93a55.26,55.26,0,0,0-5.41,2.21c-1.36.61-2.76,1.25-4.19,1.79-1.59.6-3.28,1.16-5,1.66l-.36.11A8.45,8.45,0,0,1,101.68,51.15Zm-1.08-20.6a10,10,0,0,0-1.86.2,20.31,20.31,0,0,0-10.54,6.1A21.92,21.92,0,0,0,85,41.46c-1,1.88-1.11,3.47-.41,4.72,1,1.82,2.89,1.47,3.92,1.1a28,28,0,0,0,5.59-2.93h0c3.43-2.2,6.87-4.68,8.86-7.89,1.28-2.07,1.53-3.57.75-4.6A3.69,3.69,0,0,0,100.6,30.55Z"/></g></svg>