<svg id="Layer_3" data-name="Layer 3" xmlns="http://www.w3.org/2000/svg" width="125" height="70" viewBox="0 0 125 70"><defs><style>.cls-1{fill:#333;stroke:#333;stroke-miterlimit:10;stroke-width:2px;}</style></defs><path class="cls-1" d="M30.76,21.6a23.48,23.48,0,0,0,4.62-7.11c1.11-2.93.83-6.06-1.5-8.31-2.65-2.56-6-2.48-9.22-1a30.35,30.35,0,0,0-8.38,6.71,68.93,68.93,0,0,0-12.43,18,12.91,12.91,0,0,0-1.46,4.55,4.73,4.73,0,0,0,.26,2,1.8,1.8,0,0,0,.47.83,3.83,3.83,0,0,0,1.39.28c3.41.41,6.77-1.14,9.63-2.84a96.48,96.48,0,0,0,9.25-6.29A52.67,52.67,0,0,0,30.76,21.6Zm-6.53,4.95a95,95,0,0,1-8,5.76c-2.67,1.74-5.55,3.6-8.79,3.94a8.51,8.51,0,0,1-2.31-.09c-.87-.15-1-1-1.1-1.77a8.91,8.91,0,0,1,1.1-4.33A67.51,67.51,0,0,1,9.7,21.74a65.74,65.74,0,0,1,6.71-8.6c2.44-2.64,5.09-5.4,8.36-7a6.63,6.63,0,0,1,9.35,7.93,18.36,18.36,0,0,1-3.83,6.53A44.69,44.69,0,0,1,24.23,26.55Z"/><path class="cls-1" d="M31.79,35h0Z"/><path class="cls-1" d="M64.8,35.63l-1.07.55c1.42-2.59,2.81-5.2,4.22-7.79a46.89,46.89,0,0,0,2.73-5.5c.59-1.55,1.06-3.64-.35-4.89a5.8,5.8,0,0,0-4.71-.92,16.22,16.22,0,0,0-6,2.67c-2.15,1.43-4.13,3.14-6.2,4.7S49.26,27.5,47.16,29c-1.88,1.36-3.7,2.83-5.67,4.06l-3,1.83-.52.32h0c-.34.22-.25,0,0,0a7.17,7.17,0,0,0-1.8.78c-.9.4-3.44,1.7-3.88.11-.34-1.22.58-2.85,1.13-3.89s1-2,1.58-3a68.6,68.6,0,0,1,7.18-10.39C45.3,14.88,48.65,11.13,52,7.39,53.61,5.58,55.22,3.78,56.81,2c.22-.25.28-.61-.09-.7s-.9.32-1.13.58c-6.37,7.3-13.13,14.3-18.67,22.28A73,73,0,0,0,32.23,32c-.74,1.38-2.94,5.34-.5,6.1,1.33.41,3-.36,4.15-.88a20.09,20.09,0,0,0,2.82-1.31l3-1.86c1.58-1,3-2.13,4.55-3.21l4-2.94A22.36,22.36,0,0,0,48,31.27c-.88,1.65-2.2,4.64-.39,6.15,1.23,1,3.2.7,4.63.36a21.61,21.61,0,0,0,6.69-2.84c1.5-.95,3-2,4.38-3.12.91-.69,1.75-1.52,2.66-2.25-.33.6-.66,1.2-1,1.8-1.07,1.92-2.11,3.86-3.15,5.79L54.44,41c-1.58.82-3.06,1.85-4.56,2.8-2,1.28-4,2.61-6,4a40.73,40.73,0,0,0-8.08,7.14c-2,2.42-3.6,5.46-3.19,8.69A5.82,5.82,0,0,0,35.27,68a4.88,4.88,0,0,0,5,.13c2.38-1.32,4.19-3.6,5.91-5.65,2.54-3,5-6.12,7.32-9.28a104.34,104.34,0,0,0,6.8-10.81q1.35-2.35,2.65-4.74l2-1c.25-.13.85-.56.74-.92S65.05,35.5,64.8,35.63ZM63.51,30.5c-1.4,1.17-2.93,2.2-4.43,3.24a17.23,17.23,0,0,1-7.24,3,3.77,3.77,0,0,1-2.68-.35c-1-.68-.91-2-.65-3.06.84-3.29,3.4-6.05,5.75-8.36l.17-.19c1.39-1.05,2.78-2.1,4.17-3.17a15.94,15.94,0,0,1,6.13-3.19c1.5-.31,3.81-.21,4.65,1.32s-.29,3.88-1,5.35c-.46.91-.93,1.81-1.41,2.71A29.77,29.77,0,0,0,63.51,30.5ZM57.65,44.66a126.24,126.24,0,0,1-9.74,14.18c-1.14,1.43-2.35,2.8-3.52,4.2a16.69,16.69,0,0,1-1.52,1.71C41.37,66.09,40,68,37.73,67.32c-3.69-1.1-4.15-5.57-2.92-8.64s3.88-5.62,6.44-7.72a124.15,124.15,0,0,1,12.5-8.54l.17-.11h0c.38-.18.75-.38,1.12-.58L58.4,40c.87-.46,1.75-.91,2.63-1.36C59.94,40.66,58.83,42.68,57.65,44.66Z"/><path class="cls-1" d="M122.2,28.68c-3,.58-6.11.91-9.12,1.61a47.2,47.2,0,0,0-8.64,3.19,67.55,67.55,0,0,1-9,3.31,3,3,0,0,1-2.11.17,2.63,2.63,0,0,1-1.14-1.86,6.42,6.42,0,0,1,.73-4,20.78,20.78,0,0,1,3-4c1.2-1.43,2.37-2.88,3.56-4.31.21-.26.29-.61-.09-.71s-.91.32-1.13.59l-1,1.18c.8-1.6,1.25-3.41.38-5-1.4-2.51-4.61-2.64-7.1-2.14a24.89,24.89,0,0,0-12,6.57,26.07,26.07,0,0,0-4.1,5.47c-1.1,1.91-2,4.19-1.2,6.38a4.34,4.34,0,0,0,4.51,3c2.43-.18,4.86-1.61,6.92-2.81A50.1,50.1,0,0,0,91,30.93c.45-.36.9-.73,1.33-1.11-.18.26-.35.52-.52.79-1.16,1.92-2.38,5.64-.18,7.36,1.07.84,2.61.24,3.77-.09,1.67-.48,3.31-1,4.94-1.64,3.25-1.23,6.33-2.93,9.64-4,3.73-1.22,7.67-1.54,11.51-2.27a1.49,1.49,0,0,0,1.06-.74C122.7,28.9,122.61,28.61,122.2,28.68ZM86,33.44a29.19,29.19,0,0,1-5.81,3c-2,.72-4,.41-5.13-1.56s-.5-3.91.4-5.66a23.09,23.09,0,0,1,3.32-4.82A21.29,21.29,0,0,1,89.86,18c2.1-.42,4.57-.39,6,1.48s.35,4.06-.69,5.74C93,28.68,89.35,31.28,86,33.44Z"/></svg>