<svg xmlns="http://www.w3.org/2000/svg" width="145" height="90" viewBox="0 0 145 90"><defs><style>.cls-1{fill:#f7f3f1;}</style></defs><g id="Layer_10" data-name="Layer 10"><rect x="1" y="1" width="143" height="88"/><path class="cls-1" d="M41.1,36.9a23.48,23.48,0,0,0,4.62-7.11c1.11-2.93.83-6.06-1.5-8.31-2.65-2.56-6-2.49-9.22-1a30.35,30.35,0,0,0-8.38,6.71,68.49,68.49,0,0,0-12.43,18,12.91,12.91,0,0,0-1.46,4.55,4.73,4.73,0,0,0,.26,2,1.72,1.72,0,0,0,.47.83,3.82,3.82,0,0,0,1.38.28c3.42.41,6.78-1.14,9.64-2.84a96.93,96.93,0,0,0,9.24-6.29A52.19,52.19,0,0,0,41.1,36.9Zm-6.53,5a91.33,91.33,0,0,1-8.06,5.75c-2.66,1.75-5.54,3.61-8.78,3.94a8.21,8.21,0,0,1-2.32-.08c-.86-.15-1-1-1.09-1.77a9,9,0,0,1,1.1-4.34A68.12,68.12,0,0,1,20,37a64.9,64.9,0,0,1,6.71-8.6c2.43-2.64,5.09-5.4,8.36-7a6.63,6.63,0,0,1,9.35,7.93,18.36,18.36,0,0,1-3.83,6.53A45.29,45.29,0,0,1,34.57,41.85Z"/><path class="cls-1" d="M42.13,50.33h0Z"/><path class="cls-1" d="M75.14,50.93l-1.07.55q2.12-3.9,4.22-7.79A46.26,46.26,0,0,0,81,38.18c.59-1.54,1.06-3.64-.35-4.88A5.77,5.77,0,0,0,76,32.38a16.22,16.22,0,0,0-6,2.67c-2.16,1.43-4.13,3.14-6.2,4.69S59.6,42.8,57.5,44.3c-1.88,1.35-3.7,2.83-5.67,4.06l-3,1.83-.52.32h0c-.34.22-.25,0,0,0a7.26,7.26,0,0,0-1.79.78c-.9.4-3.44,1.7-3.88.11-.34-1.22.58-2.85,1.12-3.89l1.59-3a68.6,68.6,0,0,1,7.18-10.39c3.12-3.94,6.47-7.69,9.82-11.44,1.61-1.8,3.22-3.6,4.81-5.42.22-.25.28-.61-.09-.7s-.9.32-1.13.58c-6.37,7.29-13.13,14.3-18.67,22.27a73.14,73.14,0,0,0-4.69,7.84c-.74,1.38-2.94,5.34-.5,6.1,1.33.41,3-.37,4.15-.88A21.2,21.2,0,0,0,49,51.16l3-1.86c1.58-1,3-2.13,4.55-3.22q2-1.45,4-2.93a22.36,22.36,0,0,0-2.28,3.42c-.88,1.64-2.2,4.64-.39,6.15,1.23,1,3.2.7,4.62.36a21.56,21.56,0,0,0,6.7-2.84c1.5-1,3-2,4.38-3.12.91-.7,1.75-1.52,2.66-2.25l-1,1.79c-1.07,1.92-2.11,3.87-3.16,5.8l-7.38,3.82c-1.58.82-3.06,1.85-4.56,2.8-2,1.28-4,2.61-6,4a40.73,40.73,0,0,0-8.08,7.14c-2,2.42-3.6,5.46-3.19,8.69a5.79,5.79,0,0,0,2.63,4.39,4.86,4.86,0,0,0,5,.12c2.37-1.31,4.19-3.59,5.91-5.64,2.54-3,5-6.12,7.32-9.28a104.34,104.34,0,0,0,6.8-10.81c.9-1.57,1.77-3.16,2.65-4.74l2-1c.26-.14.86-.56.75-.92S75.39,50.8,75.14,50.93ZM73.85,45.8C72.45,47,70.91,48,69.42,49a17.21,17.21,0,0,1-7.24,3,3.8,3.8,0,0,1-2.69-.34c-1-.68-.9-2-.64-3.06.84-3.29,3.4-6,5.75-8.37a.86.86,0,0,0,.16-.18c1.4-1.05,2.79-2.1,4.18-3.17a16,16,0,0,1,6.12-3.19c1.51-.32,3.82-.22,4.66,1.32s-.29,3.88-1,5.35c-.46.91-.93,1.81-1.41,2.71A29.77,29.77,0,0,0,73.85,45.8ZM68,60a125.91,125.91,0,0,1-9.75,14.18c-1.13,1.43-2.34,2.8-3.51,4.2A16.7,16.7,0,0,1,53.21,80c-1.5,1.35-2.88,3.25-5.14,2.58-3.69-1.1-4.15-5.57-2.92-8.65s3.88-5.61,6.44-7.71a125.15,125.15,0,0,1,12.49-8.54l.18-.11h0c.38-.18.74-.39,1.12-.58l3.34-1.72c.87-.46,1.75-.91,2.63-1.36C70.27,56,69.16,58,68,60Z"/><path class="cls-1" d="M132.54,44c-3,.57-6.11.91-9.12,1.61a46.66,46.66,0,0,0-8.64,3.19,67.55,67.55,0,0,1-9,3.31,3.09,3.09,0,0,1-2.11.17,2.67,2.67,0,0,1-1.14-1.86,6.42,6.42,0,0,1,.73-4,20.78,20.78,0,0,1,3-4c1.2-1.43,2.37-2.88,3.56-4.31.21-.26.29-.61-.09-.71s-.91.32-1.13.59l-1,1.18c.81-1.6,1.26-3.41.39-5-1.41-2.51-4.61-2.64-7.1-2.14a24.89,24.89,0,0,0-12,6.57,26.07,26.07,0,0,0-4.1,5.47c-1.1,1.91-2,4.19-1.21,6.38a4.35,4.35,0,0,0,4.52,3c2.43-.18,4.85-1.61,6.92-2.81a51.14,51.14,0,0,0,6.39-4.42c.45-.36.89-.73,1.33-1.11-.18.26-.36.52-.52.79-1.17,1.92-2.38,5.64-.18,7.35,1.07.85,2.61.25,3.77-.08,1.66-.48,3.31-1,4.93-1.64,3.26-1.23,6.34-2.93,9.65-4,3.73-1.22,7.67-1.54,11.51-2.27a1.49,1.49,0,0,0,1.06-.74C133,44.2,133,43.91,132.54,44ZM96.33,48.74a28.84,28.84,0,0,1-5.8,3c-2,.72-4,.41-5.13-1.56s-.5-3.91.4-5.66a23.43,23.43,0,0,1,3.31-4.82,21.36,21.36,0,0,1,11.09-6.41c2.1-.43,4.57-.39,6,1.48s.35,4.06-.69,5.74C103.36,44,99.69,46.58,96.33,48.74Z"/></g></svg>