<svg xmlns="http://www.w3.org/2000/svg" width="80" height="65" viewBox="0 0 80 65"><defs><style>.cls-1{fill:#333;}</style></defs><g id="Layer_10" data-name="Layer 10"><rect class="cls-1" x="59.6" y="12.98" width="4.58" height="39.51" rx="2.16" transform="translate(-6.6 47.25) rotate(-39.83)"/><rect class="cls-1" x="58.24" y="12.94" width="4.65" height="39.51" rx="2.19" transform="translate(35.42 -31.37) rotate(40.21)"/><path class="cls-1" d="M20,21.15V43.54H11.74a6,6,0,0,1-6-6V27.17a6,6,0,0,1,6-6Z"/><path class="cls-1" d="M11.74,20a7.18,7.18,0,0,0-7.17,7.17V37.52a7.18,7.18,0,0,0,7.17,7.17H20V42.38H11.74a4.86,4.86,0,0,1-4.85-4.86V27.17a4.86,4.86,0,0,1,4.85-4.86H20V20Z"/><path class="cls-1" d="M42.16,5.33V59.67A28.72,28.72,0,0,1,22.32,44.81V20.19A28.72,28.72,0,0,1,42.16,5.33Z"/></g></svg>