<svg xmlns="http://www.w3.org/2000/svg" width="80" height="65" viewBox="0 0 80 65"><defs><style>.cls-1{fill:#333;}</style></defs><g id="Layer_10" data-name="Layer 10"><path class="cls-1" d="M21,21.11V43.58H12.7a6,6,0,0,1-6-6V27.15a6,6,0,0,1,6-6Z"/><path class="cls-1" d="M12.7,20a7.21,7.21,0,0,0-7.2,7.2V37.54a7.21,7.21,0,0,0,7.2,7.2H21V42.41H12.7a4.88,4.88,0,0,1-4.88-4.87V27.15a4.88,4.88,0,0,1,4.88-4.87H21V20Z"/><path class="cls-1" d="M43.21,5.24V59.76a28.79,28.79,0,0,1-19.9-14.91V20.15A28.79,28.79,0,0,1,43.21,5.24Z"/><path class="cls-1" d="M49,47.48a1.55,1.55,0,0,1-1.08-2.66A16.34,16.34,0,0,0,52.83,32.9a17.79,17.79,0,0,0-5.11-12.33,1.55,1.55,0,1,1,2.22-2.16,20.87,20.87,0,0,1,6,14.47A19.4,19.4,0,0,1,50.05,47,1.55,1.55,0,0,1,49,47.48Z"/><path class="cls-1" d="M55.94,53a1.55,1.55,0,0,1-1.08-2.66c9.59-9.33,9.49-25.06-.24-35.07a1.55,1.55,0,1,1,2.22-2.15C67.76,24.33,67.84,42,57,52.54A1.51,1.51,0,0,1,55.94,53Z"/><path class="cls-1" d="M63.91,56.36a1.55,1.55,0,0,1-1.08-2.66c11.54-11.22,11.41-30.12-.27-42.14A1.55,1.55,0,1,1,64.78,9.4c12.88,13.24,13,34.11.21,46.52A1.55,1.55,0,0,1,63.91,56.36Z"/></g></svg>